<svg xmlns="http://www.w3.org/2000/svg" viewBox="0 0 16 16" fill="currentColor"><path d="M1.006 0a1 1 0 00-1 1v5a1 1 0 001 1h6a1 1 0 001-1V1a1 1 0 00-1-1h-6zm0 .5h6a.5.5 0 01.5.5v1h-7V1a.5.5 0 01.5-.5zm.25.5a.25.25 0 000 .5.25.25 0 000-.5zm1.5 0a.25.25 0 000 .5.25.25 0 000-.5zm-.78.002a.25.25 0 00-.22.248.25.25 0 00.5 0 .25.25 0 00-.28-.248zM.507 2.5h7V6a.5.5 0 01-.5.5h-6a.5.5 0 01-.5-.5V2.5zm10.055.506a.179.167 0 00-.08.043l-1.43 1.334a.179.167 0 000 .234l1.427 1.334a.18.167 0 00.254-.236L9.61 4.666h3.498a.536.5 0 01.536.5v2.668a.179.167 0 00.357 0V5.166a.893.833 0 00-.893-.832H9.61l1.125-1.049a.179.167 0 00-.173-.28zM2.178 8A.179.167 0 002 8.166v2.668a.893.833 0 00.893.832H6.39l-1.125 1.049a.18.167 0 00.254.236l1.427-1.334a.179.167 0 000-.234L5.52 10.049a.18.167 0 00-.254.236l1.125 1.049H2.893a.536.5 0 01-.536-.5V8.166A.179.167 0 002.177 8zM9 9a1 1 0 00-1 1v5a1 1 0 001 1h6a1 1 0 001-1v-5a1 1 0 00-1-1H9zm0 .5h6a.5.5 0 01.5.5v1h-7v-1a.5.5 0 01.5-.5zm.25.5a.25.25 0 000 .5.25.25 0 000-.5zm1.5 0a.25.25 0 000 .5.25.25 0 000-.5zm-.78.002a.25.25 0 00-.22.248.25.25 0 00.5 0 .25.25 0 00-.28-.248zM8.5 11.5h7V15a.5.5 0 01-.5.5H9a.5.5 0 01-.5-.5v-3.5z"/></svg>