<svg xmlns="http://www.w3.org/2000/svg" viewBox="0 0 16 16" fill="none" stroke="currentColor"><path d="M8.294 12.253l.004 2.17s.76 1.006 2.51 1.006c1.75 0 2.514-1.006 2.514-1.006v-2.17m-7.117 2.599v-3.509M5.01 9.77a10.857 10.857 0 01-.553-2.903 10.858 10.858 0 012.42-6.29 10.858 10.858 0 012.418 6.29 10.86 10.86 0 01-.129 1.204m1.643 1.277l4.605 1.995-4.605 1.995-4.602-1.995 4.605-1.995zm2.18-.982a6.29 6.29 0 10-8.624 4.268M.588 6.867h12.58" stroke-width="1.142" stroke-linecap="round" stroke-linejoin="round"/></svg>