<svg xmlns="http://www.w3.org/2000/svg" viewBox="0 0 16 16" fill="currentColor"><path d="M9.772 5.333l.373.373a.254.254 0 010 .356l-.301.301c.083.155.146.322.186.496h.39c.139 0 .252.114.252.253v.527c0 .14-.113.253-.253.253h-.424a2.003 2.003 0 01-.22.483l.274.275a.254.254 0 010 .356l-.372.373a.254.254 0 01-.357 0l-.3-.3a1.986 1.986 0 01-.497.187v.389c0 .14-.113.252-.252.252h-.527a.253.253 0 01-.253-.252V9.23a2.003 2.003 0 01-.483-.22l-.272.274a.254.254 0 01-.357 0l-.372-.373a.254.254 0 010-.356l.3-.3a1.996 1.996 0 01-.187-.496h-.39a.254.254 0 01-.252-.253V6.98c0-.14.113-.253.253-.253h.424a2.01 2.01 0 01.22-.483L6.1 5.97a.254.254 0 010-.357l.373-.372a.254.254 0 01.356 0l.301.3c.155-.083.322-.146.496-.186v-.39c0-.139.114-.252.253-.252h.527c.14 0 .253.113.253.253v.424c.172.052.333.127.483.22l.275-.274a.249.249 0 01.355-.002zM6.388 13.29a.296.296 0 01-.062-.586c-.17-.96-.632-1.488-1.12-2.047-.38-.434-.775-.886-1.086-1.552-.306-.655-.474-1.332-.469-2.035.007-.703.185-1.427.573-2.176l.008-.014a4.13 4.13 0 012.014-1.76 4.461 4.461 0 012.096-.3 4.829 4.829 0 012.002.644c.768.454 1.4 1.128 1.747 1.98.188.46.315.975.33 1.539a4.451 4.451 0 01-.339 1.807c-.346.858-.805 1.39-1.233 1.89-.395.46-.762.886-.966 1.541a.296.296 0 01-.028.58l-.098.015c-.019.142-.03.294-.036.457l.033-.005a.296.296 0 01.08.586l-.1.014.003.059c.01.114.01.225.004.33l.017-.002c.163-.02.31.096.33.258a.298.298 0 01-.257.33l-.219.028a1.771 1.771 0 01-.764.903 1.663 1.663 0 01-.73.223 1.514 1.514 0 01-.753-.147 1.587 1.587 0 01-.69-.67.297.297 0 01-.16-.227.286.286 0 01.01-.116 2.7 2.7 0 01-.113-.499l-.01.002a.296.296 0 01-.08-.586l.07-.01c.004-.16.003-.31-.004-.454zM.926 7.664a.276.276 0 01-.284-.267.275.275 0 01.267-.284l1.133-.039a.275.275 0 11.017.55zm14.129-1.121a.276.276 0 01.302.246.276.276 0 01-.246.302l-1.128.119a.276.276 0 01-.302-.247.276.276 0 01.246-.302zM13 1.924a.275.275 0 01.382-.075c.126.085.16.255.075.381l-.63.943a.275.275 0 01-.381.076.275.275 0 01-.076-.382zM8.146.268a.275.275 0 01.55.013l-.03 1.133a.275.275 0 01-.549-.013zM2.449 2.022a.276.276 0 01.375-.403l.83.773a.276.276 0 01-.375.404zm4.427 10.603l2.408-.343c.207-.872.657-1.397 1.146-1.963.4-.466.828-.964 1.14-1.737a3.92 3.92 0 00.301-1.587 3.811 3.811 0 00-.292-1.347c-.3-.733-.847-1.316-1.516-1.712a4.24 4.24 0 00-1.77-.569 3.923 3.923 0 00-1.84.263c-.685.28-1.3.778-1.743 1.526-.344.667-.503 1.305-.508 1.918-.005.617.144 1.215.417 1.797.277.594.647 1.016 1 1.422.553.633 1.075 1.23 1.257 2.332zm2.31.27l-2.248.318c.006.144.009.293.006.452l2.22-.315c.003-.16.01-.312.022-.456zm-2.23 1.367c.015.12.039.229.069.33l2.155-.265c.014-.112.017-.23.006-.357v-.003l-.001-.022zm.375.89a.947.947 0 00.751.296c.168-.01.335-.061.487-.15a1.194 1.194 0 00.375-.345zm.745-8.88a1.037 1.037 0 110 2.073 1.037 1.037 0 010-2.073z" fill-rule="evenodd" clip-rule="evenodd"/></svg>