<svg xmlns="http://www.w3.org/2000/svg" viewBox="0 0 16 16" fill="currentColor"><path d="M14.222 0A1.778 1.778 0 0116 1.778v12.444A1.778 1.778 0 0114.222 16H1.778A1.778 1.778 0 010 14.222V1.778A1.778 1.778 0 011.778 0zm0 1.778H1.778v12.444h12.444zm-6.19 2.426c.242-.772 1.28-.845 1.645-.164l.047.098L11.268 8h1.176a.889.889 0 01.104 1.772l-.104.006h-1.771a.898.898 0 01-.788-.466l-.046-.098-.847-2.119-1.47 4.705c-.23.736-1.205.847-1.606.227l-.054-.094-1.079-2.155H3.556a.889.889 0 01-.104-1.772L3.556 8h1.772c.302 0 .581.151.747.4l.056.097.345.69z"/></svg>