<svg xmlns="http://www.w3.org/2000/svg" viewBox="0 0 16 16" fill="currentColor"><path d="M8.221 1.5a.767.767 0 00-.344.084c-.02.01-.04.023-.059.035a.739.739 0 00-.155.135.68.68 0 00-.106.17.674.674 0 00-.057.27v7.198a.644.644 0 00.015.139.696.696 0 00.107.25.68.68 0 00.196.186c.02.012.039.025.059.035a.741.741 0 00.27.08c.025.002.05.002.074.002h5.252c.025 0 .05 0 .074-.002a.762.762 0 00.27-.08c.021-.01.04-.023.06-.035a.74.74 0 00.154-.135.68.68 0 00.107-.17.692.692 0 00.057-.27V2.194a.67.67 0 00-.057-.27.688.688 0 00-.262-.305c-.019-.012-.038-.025-.058-.035a.742.742 0 00-.345-.084zm.116 1.073h5.02v6.438h-5.02zm2.51 6.652a.39.376 0 01.061.006.39.376 0 01.06.013.39.376 0 01.056.023.39.376 0 01.052.031.39.376 0 01.046.038.39.376 0 01.041.044.39.376 0 01.03.05.39.376 0 01.025.055.39.376 0 01.015.058.39.376 0 01.004.059.39.376 0 01-.03.142.39.376 0 01-.085.122.39.376 0 01-.126.082.39.376 0 01-.149.03.39.376 0 01-.15-.03.39.376 0 01-.126-.082.39.376 0 01-.085-.122.39.376 0 01-.03-.142.39.376 0 01.03-.145.39.376 0 01.085-.121.39.376 0 01.126-.082.39.376 0 01.15-.03zM2 7c-.017 0-.036.002-.053.004s-.032.002-.049.006c-.016.003-.033.009-.048.014a.52.52 0 00-.236.158.52.52 0 00-.055.08.524.524 0 00-.057.188.5.5 0 00-.002.05v4a.489.489 0 00.022.15c.004.016.01.03.017.045.006.015.012.03.02.043a.54.54 0 00.025.043c.009.014.02.025.03.037a.48.48 0 00.03.036c.012.01.023.023.036.033a.52.52 0 00.039.03l.04.023c.015.007.03.015.046.021.015.006.029.013.045.018A.499.499 0 002 12h2a.503.503 0 00.148-.021c.016-.005.03-.012.045-.018a.52.52 0 00.045-.021c.014-.008.028-.015.041-.024a.521.521 0 00.04-.03l.035-.032a.48.48 0 00.03-.036c.011-.012.021-.023.03-.037a.526.526 0 00.026-.043l.019-.043c.006-.015.013-.029.018-.045a.5.5 0 00.02-.1c0-.016.003-.033.003-.05v-4a.49.49 0 00-.041-.195c-.006-.015-.012-.03-.02-.043a.505.505 0 00-.29-.239c-.016-.004-.033-.01-.05-.013l-.048-.006C4.034 7.002 4.017 7 4 7zm0 .5h2v3.533H2zm1 3.732a.25.25 0 01.035.002.25.25 0 01.035.008.25.25 0 01.034.012.25.25 0 01.03.018.25.25 0 01.03.021.25.25 0 01.024.025.25.25 0 01.021.03.25.25 0 01.018.031.25.25 0 01.013.033.25.25 0 01.006.035.25.25 0 01.004.035.25.25 0 01-.02.096.25.25 0 01-.054.08.25.25 0 01-.08.055.25.25 0 01-.096.02.25.25 0 01-.096-.02.25.25 0 01-.082-.055.25.25 0 01-.054-.08.25.25 0 01-.018-.096.25.25 0 01.018-.095.25.25 0 01.054-.082.25.25 0 01.082-.053.25.25 0 01.096-.02zM.667 0a.506.506 0 00-.26.071.616.616 0 00-.212.196.874.874 0 00-.143.287A1.155 1.155 0 000 .91v11.465a1.26 1.26 0 00.052.355 1.028 1.028 0 00.143.288.763.763 0 00.211.196.508.508 0 00.26.071H4.85l-.182.963H3.333c-.369 0-.666.392-.666.878s.297.874.666.874h9.334c.369 0 .666-.388.666-.874s-.297-.878-.666-.878h-1.334l-.182-.963h4.182a.495.495 0 00.26-.071.76.76 0 00.292-.33 1.024 1.024 0 00.102-.324c.009-.06.013-.122.013-.185V.91a1.238 1.238 0 00-.052-.356.875.875 0 00-.242-.402.615.615 0 00-.237-.134.51.51 0 00-.136-.018zm.666 1.109h13.334v11.067H1.333z"/></svg>