<svg xmlns="http://www.w3.org/2000/svg" viewBox="0 0 16 16" fill="currentColor"><path d="M2 11.258h1.095l.423 1.64.421-1.64h1.092v2.694h-.68v-2.054l-.528 2.054h-.615l-.526-2.054v2.054H2zm3.56 0h2.231v.575H6.395v.429H7.69v.55H6.395v.53h1.437v.61H5.56zm2.726 0h.777l1.015 1.49v-1.49h.785v2.694h-.785l-1.01-1.48v1.48h-.782zm4.883 0H14v1.606q0 .24-.075.453-.074.21-.234.37-.158.159-.332.223-.243.09-.583.09-.197 0-.43-.027-.232-.028-.388-.109-.156-.082-.287-.233-.128-.15-.176-.31-.077-.258-.077-.457v-1.606h.83v1.645q0 .22.122.346.123.123.34.123.215 0 .336-.122.123-.123.123-.347z"/><path d="M3 2h10c.554 0 1 .446 1 1s-.446 1-1 1H3c-.554 0-1-.446-1-1s.446-1 1-1zm0 4.629h10c.554 0 1 .446 1 1s-.446 1-1 1H3c-.554 0-1-.446-1-1s.446-1 1-1z" fill-rule="evenodd"/></svg>
